<svg version="1.2" xmlns="http://www.w3.org/2000/svg" viewBox="0 0 3440 2153" width="3440" height="2153">
	<style>
		.s0 { fill: none;stroke: #000000;stroke-miterlimit:100;stroke-width: 28 } 
	</style>
	<path id="Shape 1" class="s0" d="m571 1351c273.63-1378.43 2152.95-1366.37 2412 2"/>
	<path id="Layer 1" class="s0" d="m1292 1357c174.51-450.22 816.87-431.27 970 0"/>
	<path id="Layer 2" class="s0" d="m557 1831l720-1"/>
	<path id="Shape 2" class="s0" d="m2279 1831l717-1"/>
	<path id="Layer 3" class="s0" d="m2774 1196l4-134"/>
	<path id="Layer 4" class="s0" d="m2620 1266l-119 63"/>
	<path id="Layer 5" class="s0" d="m2382 1076l-126-49"/>
	<path id="Layer 6" class="s0" d="m2452 808l-38-128"/>
	<path id="Layer 7" class="s0" d="m2065 810l-98 94"/>
	<path id="Layer 8" class="s0" d="m2203 503l-113 75"/>
	<path id="Layer 9" class="s0" d="m1841 567l-129-43"/>
	<path id="Layer 10" class="s0" d="m1600 800l-4 134"/>
	<path id="Layer 11" class="s0" d="m1340 524l74 115"/>
	<path id="Layer 12" class="s0" d="m1286 1013l-130-41"/>
	<path id="Layer 13" class="s0" d="m1078 693l-103 90"/>
	<path id="Layer 14" class="s0" d="m802 1023l67 118"/>
	<path id="Layer 15" class="s0" d="m1110 1281l-129 41"/>
</svg>